<?xml version="1.0" encoding="UTF-8" standalone="no"?>
<!-- Created with Inkscape (http://www.inkscape.org/) -->

<svg
   width="135.07573mm"
   height="67.537994mm"
   viewBox="0 0 135.07573 67.537994"
   version="1.1"
   id="svg1"
   inkscape:version="1.4.3 (0d15f75042, 2025-12-25)"
   sodipodi:docname="bg.svg"
   inkscape:export-filename="bg.png"
   inkscape:export-xdpi="96"
   inkscape:export-ydpi="96"
   xmlns:inkscape="http://www.inkscape.org/namespaces/inkscape"
   xmlns:sodipodi="http://sodipodi.sourceforge.net/DTD/sodipodi-0.dtd"
   xmlns="http://www.w3.org/2000/svg"
   xmlns:svg="http://www.w3.org/2000/svg">
  <sodipodi:namedview
     id="namedview1"
     pagecolor="#ffffff"
     bordercolor="#000000"
     borderopacity="0.25"
     inkscape:showpageshadow="2"
     inkscape:pageopacity="0.0"
     inkscape:pagecheckerboard="0"
     inkscape:deskcolor="#d1d1d1"
     inkscape:document-units="mm"
     inkscape:zoom="0.71891835"
     inkscape:cx="194.04151"
     inkscape:cy="244.11673"
     inkscape:window-width="1221"
     inkscape:window-height="932"
     inkscape:window-x="0"
     inkscape:window-y="0"
     inkscape:window-maximized="0"
     inkscape:current-layer="layer1" />
  <defs
     id="defs1" />
  <g
     inkscape:label="Слой 1"
     inkscape:groupmode="layer"
     id="layer1"
     transform="translate(-7.1253548,-50.552864)">
    <rect
       style="fill:#1c1c1c;fill-opacity:1;stroke:none;stroke-width:0.276432"
       id="rect1"
       width="135.07573"
       height="67.537865"
       x="7.1253548"
       y="50.552864" />
    <path
       sodipodi:type="star"
       style="fill:#d6cfdf;fill-opacity:0.49687159;stroke:none;stroke-width:0.264583"
       id="path1"
       inkscape:flatsided="false"
       sodipodi:sides="6"
       sodipodi:cx="-5.9857049"
       sodipodi:cy="52.209"
       sodipodi:r1="5.6532187"
       sodipodi:r2="2.8266094"
       sodipodi:arg1="0.52359878"
       sodipodi:arg2="1.0471976"
       inkscape:rounded="0"
       inkscape:randomized="0"
       d="m -1.0898739,55.035609 -3.4825264,-0.378694 -1.4133046,3.205303 -1.4133048,-3.205303 -3.4825263,0.378694 2.0692217,-2.82661 -2.0692217,-2.826609 3.4825265,0.378694 1.4133046,-3.205303 1.4133048,3.205303 3.4825263,-0.378694 -2.0692217,2.82661 z"
       inkscape:transform-center-x="0.16175902"
       inkscape:transform-center-y="0.11192333"
       transform="matrix(0.47916764,-0.06724809,0.06724809,0.47916764,53.464376,75.592713)" />
    <path
       id="path2"
       style="fill:#d6cfdf;fill-opacity:0.49687159;stroke:none;stroke-width:0.26074"
       inkscape:transform-center-x="2.2662642"
       inkscape:transform-center-y="1.0670462"
       d="m 81.72963,69.124479 -0.82376,1.31142 -3.34186,-0.86705 1.61368,3.052147 -2.42091,2.460218 3.44921,0.12848 0.92034,3.327301 1.01239,-1.61228 z" />
    <path
       id="path3"
       style="fill:#d6cfdf;fill-opacity:0.49687159;stroke:none;stroke-width:0.254411"
       inkscape:transform-center-x="0.2748531"
       inkscape:transform-center-y="0.27810169"
       d="m 32.417868,113.64979 -0.301274,3.35535 -3.288688,0.72605 0.51108,0.35967 h 7.621757 l -0.22841,-0.16071 1.015959,-3.21169 -3.056661,1.41645 z" />
    <path
       id="path5"
       style="fill:#d6cfdf;fill-opacity:0.49687159;stroke:none;stroke-width:0.176806"
       inkscape:transform-center-x="0.26196613"
       inkscape:transform-center-y="0.071925284"
       d="m 7.8681698,60.067899 -0.742815,1.05582 v 5.296558 l 0.604395,-0.858789 2.23177,0.70582 -0.984324,-2.12411 1.7271392,-1.579989 -2.3315332,-0.209501 z" />
    <path
       sodipodi:type="star"
       style="fill:#d6cfdf;fill-opacity:0.49687159;stroke:none;stroke-width:0.264583"
       id="path6"
       inkscape:flatsided="false"
       sodipodi:sides="6"
       sodipodi:cx="-5.9857049"
       sodipodi:cy="52.209"
       sodipodi:r1="5.6532187"
       sodipodi:r2="2.8266094"
       sodipodi:arg1="0.52359878"
       sodipodi:arg2="1.0471976"
       inkscape:rounded="0"
       inkscape:randomized="0"
       d="m -1.0898739,55.035609 -3.4825264,-0.378694 -1.4133046,3.205303 -1.4133048,-3.205303 -3.4825263,0.378694 2.0692217,-2.82661 -2.0692217,-2.826609 3.4825265,0.378694 1.4133046,-3.205303 1.4133048,3.205303 3.4825263,-0.378694 -2.0692217,2.82661 z"
       inkscape:transform-center-x="0.16175902"
       inkscape:transform-center-y="0.11192333"
       transform="matrix(0.47916764,-0.06724809,0.06724809,0.47916764,119.46899,65.326227)" />
    <path
       id="path7"
       style="fill:#d6cfdf;fill-opacity:0.49687159;stroke:none;stroke-width:0.176806"
       inkscape:transform-center-x="0.2619661"
       inkscape:transform-center-y="0.07192569"
       d="m 142.20108,61.123722 -0.60439,0.858789 -2.23219,-0.705819 0.98433,2.124109 -1.72673,1.57999 2.33112,0.2095 0.50505,2.28581 0.74281,-1.05582 z" />
    <path
       id="path8"
       style="fill:#d6cfdf;fill-opacity:0.49687159;stroke:none;stroke-width:0.219803"
       inkscape:transform-center-x="0.3256731"
       inkscape:transform-center-y="0.08941669"
       d="m 121.07437,112.68538 -1.67483,2.38021 -2.77451,-0.87746 1.2237,2.64015 -1.37976,1.26245 h 6.14174 l -0.1571,-0.339 2.14716,-1.96422 -2.89853,-0.26045 z" />
    <path
       id="path9"
       style="fill:#d6cfdf;fill-opacity:0.49687159;stroke:none;stroke-width:0.219803"
       inkscape:transform-center-x="0.3256731"
       inkscape:transform-center-y="0.08941669"
       d="m 116.4692,50.552867 -0.76739,0.702283 2.89853,0.260449 0.62787,2.841687 1.67431,-2.380216 2.77503,0.876949 -1.06661,-2.301152 z" />
    <path
       id="path10"
       style="fill:#d6cfdf;fill-opacity:0.49687159;stroke:none;stroke-width:0.26074"
       inkscape:transform-center-x="-2.7065843"
       inkscape:transform-center-y="-0.54522884"
       d="m 82.74202,67.512204 -1.01239,1.612279 0.40909,7.800237 0.82376,-1.311422 3.34125,0.867083 -1.61368,-3.052146 2.42152,-2.460249 -3.44983,-0.12845 z" />
    <path
       id="path11"
       style="fill:#d6cfdf;fill-opacity:0.49687159;stroke:none;stroke-width:0.254411"
       inkscape:transform-center-x="0.2748531"
       inkscape:transform-center-y="0.27810169"
       d="m 29.338986,50.552864 2.243274,1.57872 -0.652673,2.06395 -0.362769,1.14774 3.056144,-1.41594 2.27428,2.4846 0.300757,-3.35483 3.289205,-0.72657 -2.400887,-1.6893 -0.125574,-0.08837 z" />
  </g>
</svg>
